<?xml version="1.0" encoding="UTF-8" standalone="no"?>
<!-- Created with Inkscape (http://www.inkscape.org/) -->

<svg
   width="381mm"
   height="262mm"
   viewBox="0 0 381 262"
   version="1.1"
   id="svg5"
   sodipodi:docname="Kassi Matthías.svg"
   inkscape:version="1.2.2 (732a01da63, 2022-12-09)"
   xmlns:inkscape="http://www.inkscape.org/namespaces/inkscape"
   xmlns:sodipodi="http://sodipodi.sourceforge.net/DTD/sodipodi-0.dtd"
   xmlns="http://www.w3.org/2000/svg"
   xmlns:svg="http://www.w3.org/2000/svg">
  <sodipodi:namedview
     id="namedview7"
     pagecolor="#ffffff"
     bordercolor="#000000"
     borderopacity="0.25"
     inkscape:showpageshadow="2"
     inkscape:pageopacity="0.0"
     inkscape:pagecheckerboard="0"
     inkscape:deskcolor="#d1d1d1"
     inkscape:document-units="mm"
     showgrid="false"
     inkscape:zoom="0.55244701"
     inkscape:cx="841.70969"
     inkscape:cy="552.08915"
     inkscape:window-width="1920"
     inkscape:window-height="1057"
     inkscape:window-x="1912"
     inkscape:window-y="-8"
     inkscape:window-maximized="1"
     inkscape:current-layer="layer1" />
  <defs
     id="defs2" />
  <g
     inkscape:label="Layer 1"
     inkscape:groupmode="layer"
     id="layer1">
    <g
       id="panel7605">
      <path
         style="fill:none;stroke:#000000;stroke-width:1"
         d="m 68.25,188.6 h 13.625 v -3.1 h 12.05 v 3.1 h 13.6 v -3.1 h 12.05 v 3.1 h 13.6 v -3.1 h 12.05 v 3.1 h 13.6 v -3.1 h 12.05 v 3.1 H 184.5"
         id="path829" />
      <path
         style="fill:none;stroke:#000000;stroke-width:1"
         d="m 184.5,188.6 v 11.008 h -3.1 v 11.95 h 3.1 v 14.134 h -3.1 v 11.95 h 3.1 v 11.008"
         id="path831" />
      <path
         style="fill:none;stroke:#000000;stroke-width:1"
         d="m 184.5,248.65 h -13.625 v 3.1 h -12.05 v -3.1 h -13.6 v 3.1 h -12.05 v -3.1 h -13.6 v 3.1 h -12.05 v -3.1 h -13.6 v 3.1 h -12.05 v -3.1 H 68.25"
         id="path833" />
      <path
         style="fill:none;stroke:#000000;stroke-width:1"
         d="m 68.25,248.65 v -11.008 h 3.1 v -11.95 h -3.1 v -14.134 h 3.1 v -11.95 h -3.1 V 188.6"
         id="path835" />
    </g>
    <g
       id="panel2185">
      <path
         style="fill:none;stroke:#000000;stroke-width:1"
         d="m 4.1,71.35 h 10.9583 v -3.1 h 12.05 v 3.1 h 14.0334 v -3.1 h 12.05 v 3.1 H 64.15"
         id="path838" />
      <path
         style="fill:none;stroke:#000000;stroke-width:1"
         d="m 64.15,71.35 v 10.525 h 3.1 v 12.05 h -3.1 v 13.6 h 3.1 v 12.05 h -3.1 v 13.6 h 3.1 v 12.05 h -3.1 v 13.6 h 3.1 v 12.05 h -3.1 V 181.4"
         id="path840" />
      <path
         style="fill:none;stroke:#000000;stroke-width:1"
         d="M 64.15,181.4 H 53.1917 v 3.1 h -12.05 v -3.1 H 27.1083 v 3.1 h -12.05 v -3.1 H 4.1"
         id="path842" />
      <path
         style="fill:none;stroke:#000000;stroke-width:1"
         d="M 4.1,181.4 V 170.875 H 1 v -12.05 h 3.1 v -13.6 H 1 v -12.05 h 3.1 v -13.6 H 1 v -12.05 h 3.1 v -13.6 H 1 V 81.875 H 4.1 V 71.35"
         id="path844" />
    </g>
    <g
       id="panel8107">
      <path
         style="fill:none;stroke:#000000;stroke-width:1"
         d="m 68.25,68.25 h 13.675 v 3.1 h 11.95 v -3.1 h 13.7 v 3.1 h 11.95 v -3.1 h 13.7 v 3.1 h 11.95 v -3.1 h 13.7 v 3.1 h 11.95 v -3.1 H 184.5"
         id="path847" />
      <path
         style="fill:none;stroke:#000000;stroke-width:1"
         d="m 184.5,68.25 v 13.675 h -3.1 v 11.95 h 3.1 v 13.7 h -3.1 v 11.95 h 3.1 v 13.7 h -3.1 v 11.95 h 3.1 v 13.7 h -3.1 v 11.95 h 3.1 V 184.5"
         id="path849" />
      <path
         style="fill:none;stroke:#000000;stroke-width:1"
         d="m 184.5,184.5 h -13.675 v -3.1 h -11.95 v 3.1 h -13.7 v -3.1 h -11.95 v 3.1 h -13.7 v -3.1 h -11.95 v 3.1 h -13.7 v -3.1 h -11.95 v 3.1 H 68.25"
         id="path851" />
      <path
         style="fill:none;stroke:#000000;stroke-width:1"
         d="m 68.25,184.5 v -13.675 h 3.1 v -11.95 h -3.1 v -13.7 h 3.1 v -11.95 h -3.1 v -13.7 h 3.1 v -11.95 h -3.1 v -13.7 h 3.1 v -11.95 h -3.1 V 68.25"
         id="path853" />
    </g>
    <g
       id="panel7128">
      <path
         style="fill:none;stroke:#000000;stroke-width:1"
         d="m 188.6,71.35 h 10.958 v -3.1 h 12.05 v 3.1 h 14.034 v -3.1 h 12.05 v 3.1 h 10.958"
         id="path856" />
      <path
         style="fill:none;stroke:#000000;stroke-width:1"
         d="m 248.65,71.35 v 10.525 h 3.1 v 12.05 h -3.1 v 13.6 h 3.1 v 12.05 h -3.1 v 13.6 h 3.1 v 12.05 h -3.1 v 13.6 h 3.1 v 12.05 h -3.1 V 181.4"
         id="path858" />
      <path
         style="fill:none;stroke:#000000;stroke-width:1"
         d="m 248.65,181.4 h -10.958 v 3.1 h -12.05 v -3.1 h -14.034 v 3.1 h -12.05 v -3.1 H 188.6"
         id="path860" />
      <path
         style="fill:none;stroke:#000000;stroke-width:1"
         d="m 188.6,181.4 v -10.525 h -3.1 v -12.05 h 3.1 v -13.6 h -3.1 v -12.05 h 3.1 v -13.6 h -3.1 v -12.05 h 3.1 v -13.6 h -3.1 v -12.05 h 3.1 V 71.35"
         id="path862" />
    </g>
    <g
       id="panel4807">
      <path
         style="fill:none;stroke:#000000;stroke-width:1"
         d="m 252.75,68.25 h 13.675 v 3.1 h 11.95 v -3.1 h 13.7 v 3.1 h 11.95 v -3.1 h 13.7 v 3.1 h 11.95 v -3.1 h 13.7 v 3.1 h 11.95 v -3.1 H 369"
         id="path865" />
      <path
         style="fill:none;stroke:#000000;stroke-width:1"
         d="m 369,68.25 v 13.675 h -3.1 v 11.95 h 7.33333 c 1.88475,3.480282 3.44198,7.53241 0,13.7 H 365.9 v 11.95 h 3.1 v 13.7 h -3.1 v 11.95 h 7.33333 c 2.38021,4.38085 3.0296,8.87045 0,13.7 H 365.9 v 11.95 H 369 V 184.5"
         id="path867"
         sodipodi:nodetypes="cccccccccccccccccc" />
      <path
         style="fill:none;stroke:#000000;stroke-width:1"
         d="m 369,184.5 h -13.675 v -3.1 h -11.95 v 3.1 h -13.7 v -3.1 h -11.95 v 3.1 h -13.7 v -3.1 h -11.95 v 3.1 h -13.7 v -3.1 h -11.95 v 3.1 H 252.75"
         id="path869" />
      <path
         style="fill:none;stroke:#000000;stroke-width:1"
         d="m 252.75,184.5 v -13.675 h 3.1 v -11.95 h -3.1 v -13.7 h 3.1 v -11.95 h -3.1 v -13.7 h 3.1 v -11.95 h -3.1 v -13.7 h 3.1 v -11.95 h -3.1 V 68.25"
         id="path871" />
    </g>
    <g
       id="panel2625">
      <path
         style="fill:none;stroke:#000000;stroke-width:1"
         d="M 68.25,4.1 H 81.875 V 1 h 12.05 v 3.1 h 13.6 V 1 h 12.05 v 3.1 h 13.6 V 1 h 12.05 v 3.1 h 13.6 V 1 h 12.05 V 4.1 H 184.5"
         id="path874" />
      <path
         style="fill:none;stroke:#000000;stroke-width:1"
         d="m 184.5,4.1 v 11.0083 h -3.1 v 11.95 h 3.1 v 14.1334 h -3.1 v 11.95 h 3.1 V 64.15"
         id="path876" />
      <path
         style="fill:none;stroke:#000000;stroke-width:1"
         d="m 184.5,64.15 h -13.625 v 3.1 h -12.05 v -3.1 h -13.6 v 3.1 h -12.05 v -3.1 h -13.6 v 3.1 h -12.05 v -3.1 h -13.6 v 3.1 h -12.05 v -3.1 H 68.25"
         id="path878" />
      <path
         style="fill:none;stroke:#000000;stroke-width:1"
         d="M 68.25,64.15 V 53.1417 h 3.1 v -11.95 h -3.1 V 27.0583 h 3.1 v -11.95 h -3.1 V 4.1"
         id="path880" />
    </g>
    <circle
       style="fill:none;stroke:#000000;stroke-width:0.486664;stroke-linejoin:round;paint-order:markers fill stroke"
       id="path971"
       cx="287.375"
       cy="101.375"
       r="12.256668" />
    <circle
       style="fill:none;stroke:#000000;stroke-width:0.486664;stroke-linejoin:round;paint-order:markers fill stroke"
       id="circle973"
       cx="334.375"
       cy="101.375"
       r="12.256668" />
    <circle
       style="fill:none;stroke:#000000;stroke-width:0.486664;stroke-linejoin:round;paint-order:markers fill stroke"
       id="circle975"
       cx="334.375"
       cy="151.375"
       r="12.256668" />
    <circle
       style="fill:none;stroke:#000000;stroke-width:0.486664;stroke-linejoin:round;paint-order:markers fill stroke"
       id="circle977"
       cx="287.375"
       cy="151.375"
       r="12.256668" />
    <rect
       style="fill:none;stroke:#000000;stroke-width:0.729;stroke-linejoin:miter;stroke-dasharray:none;paint-order:fill markers stroke"
       id="rect1147"
       width="20.270716"
       height="11.270716"
       x="90.472633"
       y="37.910095"
       ry="0"
       rx="0" />
    <ellipse
       style="fill:none;stroke:#000000;stroke-width:0.401507;stroke-linejoin:miter;stroke-dasharray:none;paint-order:fill markers stroke"
       id="ellipse1884"
       cx="154.90427"
       cy="41.545452"
       rx="1.7992464"
       ry="1.7992465" />
    <ellipse
       style="fill:none;stroke:#000000;stroke-width:0.401507;stroke-linejoin:miter;stroke-dasharray:none;paint-order:fill markers stroke"
       id="ellipse1886"
       cx="149.5163"
       cy="41.545452"
       rx="1.7992464"
       ry="1.7992465" />
    <ellipse
       style="fill:none;stroke:#000000;stroke-width:0.401507;stroke-linejoin:miter;stroke-dasharray:none;paint-order:fill markers stroke"
       id="ellipse1894"
       cx="154.90427"
       cy="46.410904"
       rx="1.7992464"
       ry="1.7992465" />
    <ellipse
       style="fill:none;stroke:#000000;stroke-width:0.401507;stroke-linejoin:miter;stroke-dasharray:none;paint-order:fill markers stroke"
       id="ellipse1896"
       cx="149.5163"
       cy="46.410904"
       rx="1.7992464"
       ry="1.7992465" />
    <ellipse
       style="fill:none;stroke:#000000;stroke-width:0.401507;stroke-linejoin:miter;stroke-dasharray:none;paint-order:fill markers stroke"
       id="ellipse1956"
       cx="144.69048"
       cy="46.410904"
       rx="1.7992464"
       ry="1.7992465" />
    <ellipse
       style="fill:none;stroke:#000000;stroke-width:0.401507;stroke-linejoin:miter;stroke-dasharray:none;paint-order:fill markers stroke"
       id="ellipse1958"
       cx="144.69048"
       cy="41.545452"
       rx="1.7992464"
       ry="1.7992465" />
    <ellipse
       style="fill:none;stroke:#000000;stroke-width:0.401507;stroke-linejoin:miter;stroke-dasharray:none;paint-order:fill markers stroke"
       id="ellipse1960"
       cx="149.5163"
       cy="51.276356"
       rx="1.7992464"
       ry="1.7992465" />
    <ellipse
       style="fill:none;stroke:#000000;stroke-width:0.401507;stroke-linejoin:miter;stroke-dasharray:none;paint-order:fill markers stroke"
       id="ellipse1962"
       cx="154.90427"
       cy="51.276356"
       rx="1.7992464"
       ry="1.7992465" />
    <ellipse
       style="fill:none;stroke:#000000;stroke-width:0.401507;stroke-linejoin:miter;stroke-dasharray:none;paint-order:fill markers stroke"
       id="ellipse1964"
       cx="160.29224"
       cy="46.410904"
       rx="1.7992464"
       ry="1.7992465" />
    <ellipse
       style="fill:none;stroke:#000000;stroke-width:0.401507;stroke-linejoin:miter;stroke-dasharray:none;paint-order:fill markers stroke"
       id="ellipse1966"
       cx="160.29224"
       cy="41.545452"
       rx="1.7992464"
       ry="1.7992465" />
    <ellipse
       style="fill:none;stroke:#000000;stroke-width:0.401507;stroke-linejoin:miter;stroke-dasharray:none;paint-order:fill markers stroke"
       id="ellipse1968"
       cx="154.90427"
       cy="36.68"
       rx="1.7992464"
       ry="1.7992465" />
    <ellipse
       style="fill:none;stroke:#000000;stroke-width:0.401507;stroke-linejoin:miter;stroke-dasharray:none;paint-order:fill markers stroke"
       id="ellipse1970"
       cx="149.5163"
       cy="36.68"
       rx="1.7992464"
       ry="1.7992465" />
    <g
       aria-label="MHS"
       transform="scale(0.9471186,1.055834)"
       id="text2026"
       style="font-size:8.58863px;font-family:Cambria;-inkscape-font-specification:'Cambria, Normal';fill:none;stroke:#000000;stroke-width:0.792732;paint-order:fill markers stroke">
      <path
         d="m 104.10334,17.30175 q -0.18452,0.04613 -0.26839,0.09226 -0.0797,0.04613 -0.13001,0.117423 -0.0461,0.0671 -0.0713,0.205489 -0.021,0.138391 -0.021,0.427754 v 3.627522 q 0,0.280976 0.0168,0.410979 0.021,0.130004 0.0629,0.20549 0.0461,0.07549 0.13001,0.12581 0.0881,0.05032 0.28097,0.100648 v 0.20549 h -1.74876 v -0.20549 q 0.23904,-0.05871 0.3313,-0.134197 0.0923,-0.07549 0.12581,-0.222265 0.0336,-0.146778 0.0336,-0.486465 v -1.606174 q 0,-0.633244 0.0168,-1.279069 0.021,-0.650018 0.0461,-0.889057 h -0.0713 l -1.6607,4.155924 H 100.6939 L 99.150623,17.9308 h -0.07129 q 0.02097,0.255814 0.03774,0.926801 0.02097,0.670986 0.02097,1.379716 v 1.534882 q 0,0.280976 0.01677,0.410979 0.02097,0.130004 0.06291,0.20549 0.04613,0.07549 0.130004,0.12581 0.08807,0.05032 0.280976,0.100648 v 0.20549 h -1.530689 v -0.20549 q 0.260008,-0.0671 0.348075,-0.146778 0.08807,-0.08387 0.113229,-0.234846 0.02936,-0.150972 0.02936,-0.461303 v -3.627522 q 0,-0.289363 -0.02097,-0.419366 -0.02097,-0.134198 -0.07129,-0.20549 -0.04613,-0.07549 -0.12581,-0.117423 -0.07968,-0.04613 -0.272589,-0.100648 v -0.205489 h 1.497139 l 1.471982,4.080437 1.61875,-4.080437 h 1.41746 z"
         id="path215" />
      <path
         d="m 109.50898,21.772199 q 0,0.243233 0.0126,0.364849 0.0126,0.121616 0.0419,0.197102 0.0293,0.07129 0.0713,0.117423 0.0419,0.04613 0.11742,0.08387 0.0797,0.03774 0.24324,0.07968 v 0.20549 h -1.75715 v -0.20549 q 0.23065,-0.05871 0.32291,-0.130004 0.0923,-0.07129 0.12581,-0.21807 0.0377,-0.146779 0.0377,-0.494853 V 20.01505 h -2.33167 v 1.757146 q 0,0.280976 0.0168,0.410979 0.021,0.130004 0.0629,0.20549 0.0461,0.07549 0.13001,0.12581 0.0881,0.05032 0.28097,0.100648 v 0.20549 h -1.76553 v -0.20549 q 0.26001,-0.0671 0.34807,-0.146778 0.0881,-0.08387 0.11323,-0.234846 0.0294,-0.150972 0.0294,-0.461303 v -3.627522 q 0,-0.289363 -0.021,-0.419366 -0.021,-0.134198 -0.0713,-0.20549 -0.0461,-0.07549 -0.12581,-0.117423 -0.0797,-0.04613 -0.27259,-0.100648 v -0.205489 h 1.76553 v 0.205489 q -0.18452,0.04613 -0.26839,0.09226 -0.0797,0.04613 -0.13,0.117423 -0.0461,0.0671 -0.0713,0.205489 -0.021,0.138391 -0.021,0.427754 v 1.484558 h 2.33167 v -1.484558 q 0,-0.364849 -0.0377,-0.499046 -0.0336,-0.134197 -0.11742,-0.20549 -0.0839,-0.07129 -0.3313,-0.138391 v -0.205489 h 1.75715 v 0.205489 q -0.23485,0.05871 -0.32711,0.134198 -0.0923,0.07129 -0.12581,0.21807 -0.0336,0.146779 -0.0336,0.490659 z"
         id="path217" />
      <path
         d="m 111.39613,21.516385 q 0.0839,0.369043 0.22646,0.58292 0.14258,0.213877 0.36904,0.318719 0.22646,0.100648 0.58292,0.100648 0.49066,0 0.75067,-0.255814 0.2642,-0.255814 0.2642,-0.746473 0,-0.314525 -0.10904,-0.528402 -0.10903,-0.213877 -0.35646,-0.402592 -0.24743,-0.188715 -0.75486,-0.440335 -0.49066,-0.243232 -0.77583,-0.473884 -0.28517,-0.234845 -0.42775,-0.507434 -0.13839,-0.272588 -0.13839,-0.5955 0,-0.469691 0.21807,-0.813572 0.22226,-0.348074 0.64582,-0.536789 0.42776,-0.188715 0.97713,-0.188715 0.31872,0 0.62066,0.03355 0.30614,0.03355 0.76325,0.150972 v 1.13229 h -0.41518 q -0.0964,-0.369042 -0.24323,-0.574532 -0.14678,-0.20549 -0.34388,-0.285169 -0.1971,-0.08387 -0.51163,-0.08387 -0.27259,0 -0.49066,0.100648 -0.21387,0.100648 -0.33968,0.306138 -0.12581,0.201296 -0.12581,0.482272 0,0.29775 0.10484,0.50324 0.10903,0.205489 0.33549,0.381623 0.22646,0.176134 0.67099,0.394205 0.53679,0.268395 0.83034,0.499046 0.29776,0.230652 0.46131,0.528402 0.16774,0.293557 0.16774,0.687762 0,0.440335 -0.13839,0.746472 -0.13839,0.301944 -0.38581,0.494853 -0.24324,0.188715 -0.58712,0.276782 -0.33968,0.08387 -0.74647,0.08387 -0.65841,0 -1.51811,-0.222264 v -1.149065 z"
         id="path219" />
    </g>
    <g
       aria-label="MHS"
       id="text2080"
       style="font-size:5.7313px;font-family:Cambria;-inkscape-font-specification:'Cambria, Normal';fill:none;stroke:#000000;stroke-width:0.529;paint-order:fill markers stroke">
      <path
         d="m 268.22518,167.77406 q -0.12314,0.0308 -0.17911,0.0616 -0.0532,0.0308 -0.0867,0.0784 -0.0308,0.0448 -0.0476,0.13713 -0.014,0.0924 -0.014,0.28544 v 2.42069 q 0,0.1875 0.0112,0.27425 0.014,0.0868 0.042,0.13713 0.0308,0.0504 0.0868,0.0839 0.0588,0.0336 0.1875,0.0672 v 0.13712 h -1.16697 v -0.13712 q 0.15951,-0.0392 0.22108,-0.0896 0.0616,-0.0504 0.084,-0.14832 0.0224,-0.0979 0.0224,-0.32463 v -1.07182 q 0,-0.42257 0.0112,-0.85354 0.014,-0.43376 0.0308,-0.59328 h -0.0476 l -1.1082,2.7733 h -0.32182 l -1.02985,-2.81807 h -0.0476 q 0.014,0.17071 0.0252,0.61846 0.014,0.44776 0.014,0.92071 v 1.02424 q 0,0.1875 0.0112,0.27425 0.014,0.0868 0.042,0.13713 0.0308,0.0504 0.0867,0.0839 0.0588,0.0336 0.1875,0.0672 v 0.13712 h -1.02145 v -0.13712 q 0.17351,-0.0448 0.23228,-0.0979 0.0588,-0.056 0.0756,-0.15671 0.0196,-0.10075 0.0196,-0.30784 v -2.42069 q 0,-0.19309 -0.014,-0.27985 -0.014,-0.0896 -0.0476,-0.13712 -0.0308,-0.0504 -0.084,-0.0784 -0.0532,-0.0308 -0.1819,-0.0672 v -0.13713 h 0.99906 l 0.98227,2.72293 1.08022,-2.72293 h 0.94589 z"
         id="path222" />
      <path
         d="m 271.83242,170.75724 q 0,0.16231 0.008,0.24347 0.008,0.0812 0.028,0.13153 0.0196,0.0476 0.0476,0.0784 0.028,0.0308 0.0784,0.056 0.0532,0.0252 0.16231,0.0532 v 0.13712 h -1.17257 v -0.13712 q 0.15392,-0.0392 0.21549,-0.0868 0.0616,-0.0476 0.084,-0.14552 0.0252,-0.0979 0.0252,-0.33022 v -1.17256 h -1.55596 v 1.17256 q 0,0.1875 0.0112,0.27425 0.014,0.0868 0.042,0.13713 0.0308,0.0504 0.0867,0.0839 0.0588,0.0336 0.1875,0.0672 v 0.13712 h -1.17816 v -0.13712 q 0.1735,-0.0448 0.23227,-0.0979 0.0588,-0.056 0.0756,-0.15671 0.0196,-0.10075 0.0196,-0.30784 v -2.42069 q 0,-0.19309 -0.014,-0.27985 -0.014,-0.0896 -0.0476,-0.13712 -0.0308,-0.0504 -0.0839,-0.0784 -0.0532,-0.0308 -0.1819,-0.0672 v -0.13713 h 1.17816 v 0.13713 q -0.12313,0.0308 -0.1791,0.0616 -0.0532,0.0308 -0.0867,0.0784 -0.0308,0.0448 -0.0476,0.13713 -0.014,0.0924 -0.014,0.28544 v 0.99067 h 1.55596 v -0.99067 q 0,-0.24347 -0.0252,-0.33302 -0.0224,-0.0896 -0.0784,-0.13712 -0.056,-0.0476 -0.22108,-0.0924 v -0.13713 h 1.17257 v 0.13713 q -0.15672,0.0392 -0.21828,0.0896 -0.0616,0.0476 -0.084,0.14552 -0.0224,0.0979 -0.0224,0.32742 z"
         id="path224" />
      <path
         d="m 273.09174,170.58653 q 0.056,0.24627 0.15112,0.38899 0.0951,0.14273 0.24627,0.21269 0.15112,0.0672 0.38899,0.0672 0.32742,0 0.50093,-0.17071 0.1763,-0.1707 0.1763,-0.49813 0,-0.20988 -0.0728,-0.35261 -0.0728,-0.14272 -0.23787,-0.26865 -0.16511,-0.12593 -0.50373,-0.29384 -0.32742,-0.16231 -0.51772,-0.31623 -0.1903,-0.15672 -0.28544,-0.33862 -0.0924,-0.1819 -0.0924,-0.39738 0,-0.31343 0.14552,-0.54291 0.14832,-0.23227 0.43096,-0.3582 0.28545,-0.12594 0.65205,-0.12594 0.21269,0 0.41418,0.0224 0.20429,0.0224 0.50932,0.10075 v 0.75559 h -0.27705 q -0.0644,-0.24627 -0.16231,-0.38339 -0.098,-0.13713 -0.22948,-0.1903 -0.13153,-0.056 -0.34141,-0.056 -0.1819,0 -0.32742,0.0672 -0.14273,0.0672 -0.22668,0.20429 -0.084,0.13433 -0.084,0.32183 0,0.19869 0.07,0.33582 0.0728,0.13712 0.22387,0.25466 0.15112,0.11754 0.44776,0.26306 0.35821,0.1791 0.5541,0.33302 0.1987,0.15391 0.30784,0.35261 0.11194,0.19589 0.11194,0.45895 0,0.29384 -0.0924,0.49813 -0.0924,0.20149 -0.25747,0.33022 -0.16231,0.12593 -0.39178,0.1847 -0.22668,0.056 -0.49813,0.056 -0.43937,0 -1.01306,-0.14832 v -0.76679 z"
         id="path226" />
    </g>
  </g>
</svg>
